<?xml version="1.0" encoding="UTF-8"?>
<svg id="Layer_2" data-name="Layer 2" xmlns="http://www.w3.org/2000/svg" viewBox="0 0 149.78 182.1">
  <defs>
    <style>
      .cls-1 {
        fill: #c9cfd3;
      }
    </style>
  </defs>
  <g id="Layer_1-2" data-name="Layer 1">
    <g>
      <path class="cls-1" d="M74.67,0C36.65,0,5.83,29.77,5.83,66.5s30.82,66.5,68.83,66.5,68.83-29.77,68.83-66.5S112.68,0,74.67,0ZM74.67,127.05c-34.61,0-62.67-27.11-62.67-60.55S40.05,5.95,74.67,5.95s62.67,27.11,62.67,60.54-28.06,60.55-62.67,60.55Z"/>
      <path class="cls-1" d="M74.67,8.5s0,0,0,0c-33.16,0-60.03,25.97-60.03,58,0,32.03,26.88,57.99,60.03,57.99,0,0,0,0,0,0V8.5Z"/>
    </g>
    <g>
      <path class="cls-1" d="M23.24,172.61c0,2.08-.58,2.08-4.04,2.08v-11.83H4.08v11.66H0v-26c0-2.08.72-2.08,4.08-2.08v12.74h15.12v-12.57h4.04v26Z"/>
      <path class="cls-1" d="M36.06,162.68l6.15-.69v-.09c-.22-3.94-2.74-5.29-6.28-5.29-1.88,0-3.68.56-5.34,1.21v-1.3c0-2.12,3.99-3.29,6.95-3.29,3.41,0,8.07,1.13,8.57,8.28l.81,11.22c.13,1.95-.67,1.95-3.95,1.95l-.27-4.16c-1.57,2.77-4.04,4.42-7.63,4.42-4.62,0-6.55-3.29-6.55-6.33s2.33-5.33,7.54-5.94ZM36.47,172c3.5,0,5.56-3.77,5.74-7.24l-5.74.69c-2.11.26-3.45,1.34-3.45,3.03,0,1.99,1.12,3.51,3.45,3.51Z"/>
      <path class="cls-1" d="M52.66,174.51v-27.43c0-2.04.49-2.04,3.81-2.04v29.47h-3.81Z"/>
      <path class="cls-1" d="M63.74,174.51v-15.56l-3.18-1.13c.04-.65.31-1.52.76-1.99h2.42v-1.17c0-4.81,2.87-8.49,7.85-8.49,1.39,0,3.27.52,3.27,2.38v1.3c-.49-.13-1.3-.26-1.88-.26-3.99,0-5.47,1.95-5.47,5.76v.48h5.11c1.44,0,1.44,1,1.44,3.34h-6.55v15.34h-3.77Z"/>
      <path class="cls-1" d="M89.08,174.51h-2.24c-4.98,0-7.36-1.95-7.36-7.19v-16.94h-2.33c0-2.47,0-3.77,1.48-3.77h10.99c7.8,0,14.04,4.25,14.04,13.04s-6.64,14.86-14.58,14.86ZM83.52,150.38v16.51c0,2.51,1.03,3.86,3.72,3.86h1.7c5.56,0,10.41-3.81,10.41-11.09,0-6.72-4.71-9.27-10.41-9.27h-5.43Z"/>
      <path class="cls-1" d="M114.7,162.68l6.15-.69v-.09c-.22-3.94-2.74-5.29-6.28-5.29-1.88,0-3.68.56-5.34,1.21v-1.3c0-2.12,3.99-3.29,6.95-3.29,3.41,0,8.07,1.13,8.57,8.28l.81,11.22c.13,1.95-.67,1.95-3.95,1.95l-.27-4.16c-1.57,2.77-4.04,4.42-7.63,4.42-4.62,0-6.55-3.29-6.55-6.33s2.33-5.33,7.54-5.94ZM115.1,172c3.5,0,5.56-3.77,5.74-7.24l-5.74.69c-2.11.26-3.45,1.34-3.45,3.03,0,1.99,1.12,3.51,3.45,3.51Z"/>
      <path class="cls-1" d="M149.78,154.19l-7.72,20.06c-.72,5.68-3.41,7.84-6.86,7.84-1.88,0-3.45-.65-3.45-2.43v-1.34c.76.17,1.44.26,1.93.26,2.29,0,3.9-1.21,4.4-3.9-3.99-7.06-7.22-14.26-9.64-21.02h4.58c1.75,5.46,4.44,11.4,6.95,16.34l5.65-16.34h4.17v.52Z"/>
    </g>
  </g>
</svg>