<?xml version="1.0" encoding="UTF-8"?>
<svg id="Layer_2" data-name="Layer 2" xmlns="http://www.w3.org/2000/svg" viewBox="0 0 150.46 145.35">
  <defs>
    <style>
      .cls-1 {
        fill: #232c33;
      }
    </style>
  </defs>
  <g id="Layer_1-2" data-name="Layer 1">
    <g>
      <path class="cls-1" d="M75.23,0C33.68,0,0,32.54,0,72.68s33.68,72.68,75.23,72.68,75.23-32.54,75.23-72.68S116.78,0,75.23,0ZM75.23,138.85c-37.83,0-68.49-29.63-68.49-66.17S37.4,6.51,75.23,6.51s68.5,29.62,68.5,66.17-30.67,66.17-68.5,66.17Z"/>
      <path class="cls-1" d="M75.23,9.29s0,0,0,0c-36.23,0-65.61,28.38-65.61,63.38,0,35.01,29.37,63.38,65.61,63.38,0,0,0,0,0,0V9.29Z"/>
    </g>
  </g>
</svg>