<?xml version="1.0" encoding="UTF-8"?>
<svg id="Layer_2" data-name="Layer 2" xmlns="http://www.w3.org/2000/svg" viewBox="0 0 654.44 167.58">
  <g id="Layer_1-2" data-name="Layer 1">
    <g>
      <path d="M101.53,124.66c0,9.41-2.55,9.41-17.64,9.41v-53.51H17.84v52.72H0V15.68C0,6.27,3.14,6.27,17.84,6.27v57.62h66.05V7.06h17.64v117.6Z"/>
      <path d="M157.58,79.77l26.85-3.14v-.39c-.98-17.84-11.96-23.91-27.44-23.91-8.23,0-16.07,2.55-23.32,5.49v-5.88c0-9.6,17.44-14.9,30.38-14.9,14.9,0,35.28,5.1,37.44,37.44l3.53,50.76c.59,8.82-2.94,8.82-17.25,8.82l-1.18-18.82c-6.86,12.54-17.64,19.99-33.32,19.99-20.19,0-28.62-14.9-28.62-28.62s10.19-24.11,32.93-26.85ZM159.35,121.91c15.29,0,24.3-17.05,25.09-32.73l-25.09,3.14c-9.21,1.18-15.09,6.08-15.09,13.72,0,9.02,4.9,15.88,15.09,15.88Z"/>
      <path d="M230.1,133.28V9.21c0-9.21,2.16-9.21,16.66-9.21v133.28h-16.66Z"/>
      <path d="M278.51,133.28V62.92l-13.92-5.1c.2-2.94,1.37-6.86,3.33-9.02h10.58v-5.29c0-21.76,12.54-38.42,34.3-38.42,6.08,0,14.31,2.35,14.31,10.78v5.88c-2.16-.59-5.68-1.18-8.23-1.18-17.44,0-23.91,8.82-23.91,26.07v2.16h22.34c6.27,0,6.27,4.51,6.27,15.09h-28.62v69.38h-16.46Z"/>
      <path d="M389.25,133.28h-9.8c-21.76,0-32.14-8.82-32.14-32.54V24.11h-10.19c0-11.17,0-17.05,6.47-17.05h48.02c34.1,0,61.35,19.21,61.35,59s-29.01,67.23-63.7,67.23ZM364.95,24.11v74.68c0,11.37,4.51,17.44,16.27,17.44h7.45c24.3,0,45.47-17.25,45.47-50.18,0-30.38-20.58-41.94-45.47-41.94h-23.72Z"/>
      <path d="M501.17,79.77l26.85-3.14v-.39c-.98-17.84-11.96-23.91-27.44-23.91-8.23,0-16.07,2.55-23.32,5.49v-5.88c0-9.6,17.44-14.9,30.38-14.9,14.9,0,35.28,5.1,37.44,37.44l3.53,50.76c.59,8.82-2.94,8.82-17.25,8.82l-1.18-18.82c-6.86,12.54-17.64,19.99-33.32,19.99-20.19,0-28.62-14.9-28.62-28.62s10.19-24.11,32.93-26.85ZM502.93,121.91c15.29,0,24.3-17.05,25.09-32.73l-25.09,3.14c-9.21,1.18-15.09,6.08-15.09,13.72,0,9.02,4.9,15.88,15.09,15.88Z"/>
      <path d="M654.44,41.36l-33.71,90.75c-3.14,25.68-14.9,35.48-29.99,35.48-8.23,0-15.09-2.94-15.09-10.98v-6.08c3.33.78,6.27,1.18,8.43,1.18,10,0,17.05-5.49,19.21-17.64-17.44-31.95-31.56-64.48-42.14-95.06h19.99c7.64,24.7,19.4,51.55,30.38,73.89l24.7-73.89h18.23v2.35Z"/>
    </g>
  </g>
</svg>