<?xml version="1.0" encoding="UTF-8"?>
<svg id="Layer_2" data-name="Layer 2" xmlns="http://www.w3.org/2000/svg" viewBox="0 0 163.69 40.49">
  <defs>
    <style>
      .cls-1 {
        fill: #232c33;
      }
    </style>
  </defs>
  <g id="Layer_1-2" data-name="Layer 1">
    <g>
      <path class="cls-1" d="M25.39,30.12c0,2.27-.64,2.27-4.41,2.27v-12.93H4.46v12.74H0V3.79C0,1.52.78,1.52,4.46,1.52v13.92h16.52V1.7h4.41v28.42Z"/>
      <path class="cls-1" d="M39.41,19.28l6.72-.76v-.09c-.25-4.31-2.99-5.78-6.86-5.78-2.06,0-4.02.62-5.83,1.33v-1.42c0-2.32,4.36-3.6,7.6-3.6,3.73,0,8.82,1.23,9.36,9.05l.88,12.27c.15,2.13-.74,2.13-4.31,2.13l-.29-4.55c-1.72,3.03-4.41,4.83-8.33,4.83-5.05,0-7.16-3.6-7.16-6.91s2.55-5.83,8.24-6.49ZM39.86,29.46c3.82,0,6.08-4.12,6.27-7.91l-6.27.76c-2.3.28-3.77,1.47-3.77,3.32,0,2.18,1.23,3.84,3.77,3.84Z"/>
      <path class="cls-1" d="M57.55,32.2V2.23c0-2.23.54-2.23,4.17-2.23v32.2h-4.17Z"/>
      <path class="cls-1" d="M69.66,32.2V15.2l-3.48-1.23c.05-.71.34-1.66.83-2.18h2.65v-1.28c0-5.26,3.14-9.28,8.58-9.28,1.52,0,3.58.57,3.58,2.6v1.42c-.54-.14-1.42-.28-2.06-.28-4.36,0-5.98,2.13-5.98,6.3v.52h5.59c1.57,0,1.57,1.09,1.57,3.65h-7.16v16.77h-4.12Z"/>
      <path class="cls-1" d="M97.36,32.2h-2.45c-5.44,0-8.04-2.13-8.04-7.86V5.83h-2.55c0-2.7,0-4.12,1.62-4.12h12.01c8.53,0,15.34,4.64,15.34,14.26s-7.26,16.24-15.93,16.24ZM91.28,5.83v18.04c0,2.75,1.13,4.22,4.07,4.22h1.86c6.08,0,11.37-4.17,11.37-12.12,0-7.34-5.15-10.14-11.37-10.14h-5.93Z"/>
      <path class="cls-1" d="M125.35,19.28l6.72-.76v-.09c-.25-4.31-2.99-5.78-6.86-5.78-2.06,0-4.02.62-5.83,1.33v-1.42c0-2.32,4.36-3.6,7.6-3.6,3.73,0,8.82,1.23,9.36,9.05l.88,12.27c.15,2.13-.74,2.13-4.31,2.13l-.29-4.55c-1.72,3.03-4.41,4.83-8.33,4.83-5.05,0-7.16-3.6-7.16-6.91s2.55-5.83,8.24-6.49ZM125.79,29.46c3.82,0,6.08-4.12,6.27-7.91l-6.27.76c-2.3.28-3.77,1.47-3.77,3.32,0,2.18,1.23,3.84,3.77,3.84Z"/>
      <path class="cls-1" d="M163.69,9.99l-8.43,21.93c-.78,6.2-3.73,8.57-7.5,8.57-2.06,0-3.77-.71-3.77-2.65v-1.47c.83.19,1.57.28,2.11.28,2.5,0,4.26-1.33,4.8-4.26-4.36-7.72-7.89-15.58-10.54-22.97h5c1.91,5.97,4.85,12.46,7.6,17.85l6.18-17.85h4.56v.57Z"/>
    </g>
  </g>
</svg>