<?xml version="1.0" encoding="UTF-8"?>
<svg id="Layer_2" data-name="Layer 2" xmlns="http://www.w3.org/2000/svg" viewBox="0 0 163.69 187.31">
  <defs>
    <style>
      .cls-1 {
        fill: #232c33;
      }
    </style>
  </defs>
  <g id="Layer_1-2" data-name="Layer 1">
    <g>
      <path class="cls-1" d="M81.84,0C40.3,0,6.62,32.54,6.62,72.68s33.68,72.68,75.23,72.68,75.23-32.54,75.23-72.68S123.39,0,81.84,0ZM81.84,138.85c-37.83,0-68.49-29.63-68.49-66.17S44.02,6.51,81.84,6.51s68.5,29.62,68.5,66.17-30.67,66.17-68.5,66.17Z"/>
      <path class="cls-1" d="M81.85,9.29s0,0,0,0c-36.23,0-65.61,28.38-65.61,63.38,0,35.01,29.37,63.38,65.61,63.38,0,0,0,0,0,0V9.29Z"/>
    </g>
    <g>
      <path class="cls-1" d="M25.39,176.94c0,2.27-.64,2.27-4.41,2.27v-12.93H4.46v12.74H0v-28.42c0-2.27.78-2.27,4.46-2.27v13.92h16.52v-13.73h4.41v28.42Z"/>
      <path class="cls-1" d="M39.41,166.09l6.72-.76v-.09c-.25-4.31-2.99-5.78-6.86-5.78-2.06,0-4.02.62-5.83,1.33v-1.42c0-2.32,4.36-3.6,7.6-3.6,3.73,0,8.82,1.23,9.36,9.05l.88,12.27c.15,2.13-.74,2.13-4.31,2.13l-.29-4.55c-1.72,3.03-4.41,4.83-8.33,4.83-5.05,0-7.16-3.6-7.16-6.91s2.55-5.83,8.24-6.49ZM39.86,176.27c3.82,0,6.08-4.12,6.27-7.91l-6.27.76c-2.3.28-3.77,1.47-3.77,3.32,0,2.18,1.23,3.84,3.77,3.84Z"/>
      <path class="cls-1" d="M57.55,179.02v-29.98c0-2.23.54-2.23,4.17-2.23v32.2h-4.17Z"/>
      <path class="cls-1" d="M69.66,179.02v-17l-3.48-1.23c.05-.71.34-1.66.83-2.18h2.65v-1.28c0-5.26,3.14-9.28,8.58-9.28,1.52,0,3.58.57,3.58,2.6v1.42c-.54-.14-1.42-.28-2.06-.28-4.36,0-5.98,2.13-5.98,6.3v.52h5.59c1.57,0,1.57,1.09,1.57,3.65h-7.16v16.77h-4.12Z"/>
      <path class="cls-1" d="M97.36,179.02h-2.45c-5.44,0-8.04-2.13-8.04-7.86v-18.52h-2.55c0-2.7,0-4.12,1.62-4.12h12.01c8.53,0,15.34,4.64,15.34,14.26s-7.26,16.24-15.93,16.24ZM91.28,152.64v18.04c0,2.75,1.13,4.22,4.07,4.22h1.86c6.08,0,11.37-4.17,11.37-12.12,0-7.34-5.15-10.14-11.37-10.14h-5.93Z"/>
      <path class="cls-1" d="M125.35,166.09l6.72-.76v-.09c-.25-4.31-2.99-5.78-6.86-5.78-2.06,0-4.02.62-5.83,1.33v-1.42c0-2.32,4.36-3.6,7.6-3.6,3.73,0,8.82,1.23,9.36,9.05l.88,12.27c.15,2.13-.74,2.13-4.31,2.13l-.29-4.55c-1.72,3.03-4.41,4.83-8.33,4.83-5.05,0-7.16-3.6-7.16-6.91s2.55-5.83,8.24-6.49ZM125.79,176.27c3.82,0,6.08-4.12,6.27-7.91l-6.27.76c-2.3.28-3.77,1.47-3.77,3.32,0,2.18,1.23,3.84,3.77,3.84Z"/>
      <path class="cls-1" d="M163.69,156.81l-8.43,21.93c-.78,6.2-3.73,8.57-7.5,8.57-2.06,0-3.77-.71-3.77-2.65v-1.47c.83.19,1.57.28,2.11.28,2.5,0,4.26-1.33,4.8-4.26-4.36-7.72-7.89-15.58-10.54-22.97h5c1.91,5.97,4.85,12.46,7.6,17.85l6.18-17.85h4.56v.57Z"/>
    </g>
  </g>
</svg>